<svg width="56" height="56" viewBox="0 0 56 56" fill="none" xmlns="http://www.w3.org/2000/svg">
<g id="Flower Icon">
<path id="Ellipse 18" d="M38.5 10.5C38.5 16.299 28 28 28 28C28 28 17.5 16.299 17.5 10.5C17.5 4.70101 22.201 0 28 0C33.799 0 38.5 4.70101 38.5 10.5Z" fill="url(#paint0_linear_12_140)"/>
<path id="Ellipse 19" d="M17.5 45.5C17.5 39.701 28 28 28 28C28 28 38.5 39.701 38.5 45.5C38.5 51.299 33.799 56 28 56C22.201 56 17.5 51.299 17.5 45.5Z" fill="url(#paint1_linear_12_140)"/>
<path id="Ellipse 20" d="M10.5 17.5C16.299 17.5 28 28 28 28C28 28 16.299 38.5 10.5 38.5C4.70101 38.5 0 33.799 0 28C0 22.201 4.70101 17.5 10.5 17.5Z" fill="url(#paint2_linear_12_140)"/>
<path id="Ellipse 21" d="M45.5 38.5C39.701 38.5 28 28 28 28C28 28 39.701 17.5 45.5 17.5C51.299 17.5 56 22.201 56 28C56 33.799 51.299 38.5 45.5 38.5Z" fill="url(#paint3_linear_12_140)"/>
</g>
<defs>
<linearGradient id="paint0_linear_12_140" x1="28" y1="0" x2="28" y2="28" gradientUnits="userSpaceOnUse">
<stop stop-color="#35A29F"/>
<stop offset="1" stop-color="#0B666A"/>
</linearGradient>
<linearGradient id="paint1_linear_12_140" x1="28" y1="56" x2="28" y2="28" gradientUnits="userSpaceOnUse">
<stop stop-color="#35A29F"/>
<stop offset="1" stop-color="#0B666A"/>
</linearGradient>
<linearGradient id="paint2_linear_12_140" x1="0" y1="28" x2="28" y2="28" gradientUnits="userSpaceOnUse">
<stop stop-color="#35A29F"/>
<stop offset="1" stop-color="#0B666A"/>
</linearGradient>
<linearGradient id="paint3_linear_12_140" x1="56" y1="28" x2="28" y2="28" gradientUnits="userSpaceOnUse">
<stop stop-color="#35A29F"/>
<stop offset="1" stop-color="#0B666A"/>
</linearGradient>
</defs>
</svg>
