<svg width="106" height="64" viewBox="0 0 106 64" fill="none" xmlns="http://www.w3.org/2000/svg">
<path d="M18.4509 15.3841C18.4509 16.0442 18.2749 16.6823 17.9228 17.2985C17.5707 17.9146 17.1306 18.4427 16.6025 18.8828C16.0744 19.3229 15.4748 19.73 14.8036 20.1041C14.1435 20.4781 13.5329 20.7752 12.9718 20.9952C12.4106 21.2043 11.8825 21.3693 11.3874 21.4903C12.4656 21.5784 13.4779 21.7489 14.4241 22.002C15.3703 22.255 16.2449 22.6016 17.0481 23.0417C17.8513 23.4708 18.4894 24.0319 18.9625 24.725C19.4356 25.4182 19.6722 26.1993 19.6722 27.0685C19.6722 27.9267 19.4796 28.7629 19.0946 29.5771C18.7095 30.3802 18.1373 31.1284 17.3782 31.8215C16.63 32.5147 15.6013 33.0758 14.292 33.5049C12.9828 33.923 11.4974 34.132 9.83609 34.132C7.40457 34.132 4.97306 34.066 2.54154 33.934C2.69557 30.7433 2.77259 26.821 2.77259 22.167C2.77259 17.9751 2.70657 14.1903 2.57455 10.8126C3.53175 10.6475 4.75301 10.5045 6.23832 10.3835C7.72364 10.2625 8.9669 10.202 9.96812 10.202C12.6417 10.202 14.7211 10.664 16.2064 11.5882C17.7028 12.5014 18.4509 13.7667 18.4509 15.3841ZM6.93147 22.2C6.93147 25.2146 6.97548 28.4603 7.0635 31.9371C7.91068 32.9933 9.08243 33.5214 10.5787 33.5214C11.3269 33.5214 11.9815 33.3564 12.5427 33.0263C13.1148 32.6852 13.5549 32.2286 13.8629 31.6565C14.182 31.0844 14.4186 30.4683 14.5726 29.8081C14.7266 29.137 14.8036 28.4273 14.8036 27.6792C14.8036 25.8418 14.3635 24.4445 13.4834 23.4873C12.6142 22.5191 11.2994 22.035 9.53902 22.035C8.39478 22.035 7.5256 22.09 6.93147 22.2ZM9.29147 10.7796C8.71935 10.7796 7.9987 10.8236 7.12951 10.9116C6.99748 14.5644 6.93147 18.0576 6.93147 21.3913C8.22975 21.3913 9.29697 21.4133 10.1332 21.4573C10.7163 21.2923 11.2334 21.0558 11.6845 20.7477C12.1356 20.4286 12.4987 20.0875 12.7737 19.7245C13.0488 19.3504 13.2688 18.9378 13.4339 18.4867C13.6099 18.0246 13.7309 17.5845 13.7969 17.1664C13.8629 16.7483 13.8959 16.3192 13.8959 15.8792C13.8959 14.999 13.7419 14.1848 13.4339 13.4366C13.1368 12.6885 12.6307 12.0613 11.9155 11.5552C11.2004 11.0381 10.3257 10.7796 9.29147 10.7796ZM22.5603 18.1896L26.6367 17.1994L26.8842 22.266C27.5994 20.7807 28.166 19.7465 28.5841 19.1634C29.5193 17.8761 30.5535 17.2324 31.6867 17.2324C32.2698 17.2324 32.809 17.337 33.3041 17.546L32.5614 21.0613C31.9123 20.7642 31.2466 20.6157 30.5645 20.6157C29.8273 20.6157 29.1342 20.8577 28.485 21.3418C27.8469 21.8259 27.3133 22.431 26.8842 23.1572V34H22.7913V23.6853C22.7913 22.035 22.7143 20.2031 22.5603 18.1896ZM35.6641 34V23.8008C35.6641 21.9524 35.587 20.082 35.433 18.1896L39.7569 17.1994V34H35.6641ZM35.4 12.2649C35.4 11.6378 35.6311 11.0986 36.0932 10.6475C36.5553 10.1964 37.1219 9.9709 37.793 9.9709C38.4642 9.9709 39.0308 10.1964 39.4929 10.6475C39.955 11.0986 40.186 11.6378 40.186 12.2649C40.186 12.881 39.9495 13.4091 39.4764 13.8492C39.0033 14.2783 38.4202 14.4929 37.727 14.4929C37.0669 14.4929 36.5112 14.2783 36.0602 13.8492C35.6201 13.4091 35.4 12.881 35.4 12.2649ZM51.854 19.3614C50.6437 19.3614 49.395 19.939 48.1077 21.0943V34H44.0148V23.6853C44.0148 22.068 43.9378 20.2361 43.7838 18.1896L47.8602 17.1994L48.1077 20.4836C49.0539 19.4934 50.0111 18.7068 50.9793 18.1236C51.9475 17.5295 52.9817 17.2324 54.082 17.2324C55.5453 17.2324 56.7445 17.7496 57.6797 18.7838C58.6149 19.807 59.0825 21.1493 59.0825 22.8106V34H54.9732V23.1902C54.9732 21.9359 54.6816 20.9842 54.0985 20.3351C53.5264 19.686 52.7782 19.3614 51.854 19.3614ZM62.2842 22.8436C62.2842 20.3131 62.8618 18.0741 64.0171 16.1267C65.1723 14.1793 66.7677 12.6775 68.8031 11.6213C70.8495 10.565 73.171 10.0369 75.7676 10.0369C78.2981 10.0369 80.7186 10.4 83.0291 11.1261L81.6758 16.5558L81.2467 16.6548C81.2687 16.1377 81.1037 15.5436 80.7516 14.8724C80.4106 14.1903 79.9485 13.5412 79.3653 12.925C78.7932 12.3089 78.0781 11.7863 77.2199 11.3572C76.3727 10.9281 75.5035 10.7136 74.6123 10.7136C73.237 10.7136 71.9773 11.1757 70.833 12.0999C69.6888 13.013 68.7756 14.3278 68.0935 16.0442C67.4113 17.7496 67.0702 19.6805 67.0702 21.8369C67.0702 23.9604 67.3893 25.9408 68.0274 27.7782C68.6766 29.6156 69.6008 31.1009 70.8 32.2341C72.0103 33.3674 73.3581 33.934 74.8434 33.934C75.6686 33.934 76.5322 33.7579 77.4344 33.4059C78.3476 33.0538 79.0408 32.5972 79.5139 32.0361V29.9731C79.5139 27.7727 79.3928 25.8583 79.1508 24.2299L83.6397 23.3552V29.6101C83.6397 30.9854 83.6838 32.0086 83.7718 32.6797C80.5811 33.901 77.5169 34.5116 74.5793 34.5116C70.8385 34.5116 67.8514 33.4554 65.6179 31.3429C63.3955 29.2195 62.2842 26.3864 62.2842 22.8436Z" fill="#0D1836"/>
<path d="M29.1702 27.6552H33.7911C33.6371 30.7469 33.5601 34.6912 33.5601 39.4883C33.5601 44.1752 33.6371 48.0976 33.7911 51.2552H29.1702C29.3242 48.0976 29.4012 44.1642 29.4012 39.4552C29.4012 34.7462 29.3242 30.8129 29.1702 27.6552ZM49.3539 34.7683V33.712C49.3539 32.1167 49.2769 29.9987 49.1229 27.3582L53.4468 26.3845V44.8354C53.4468 46.7828 53.5238 48.7192 53.6779 50.6446L49.7665 51.6348L49.3539 48.4827C47.3955 50.5841 45.4591 51.6348 43.5447 51.6348C42.7305 51.6348 41.9384 51.4643 41.1682 51.1232C40.398 50.7711 39.7049 50.2815 39.0888 49.6544C38.4726 49.0273 37.9775 48.2186 37.6035 47.2284C37.2294 46.2382 37.0423 45.149 37.0423 43.9607C37.0423 42.1343 37.4604 40.5005 38.2966 39.0592C39.1438 37.6069 40.288 36.4901 41.7293 35.709C43.1816 34.9168 44.788 34.5207 46.5484 34.5207C47.2855 34.5207 48.2207 34.6032 49.3539 34.7683ZM45.8717 49.5059C47.203 49.5059 48.3637 48.9393 49.3539 47.806V36.9632C48.9909 36.3911 48.5178 35.9455 47.9346 35.6264C47.3515 35.2964 46.7409 35.1313 46.1028 35.1313C45.2116 35.1313 44.4139 35.4944 43.7098 36.2206C43.0166 36.9467 42.4885 37.8819 42.1254 39.0262C41.7623 40.1704 41.5808 41.3972 41.5808 42.7064C41.5808 44.7529 41.9659 46.3977 42.736 47.641C43.5062 48.8842 44.5514 49.5059 45.8717 49.5059ZM71.8977 41.8317H61.0549C60.9119 44.1642 61.4345 46.0126 62.6228 47.3769C63.811 48.7412 65.3403 49.4234 67.2107 49.4234C67.9919 49.4234 68.7731 49.3078 69.5542 49.0768C70.3354 48.8457 70.9845 48.4772 71.5016 47.9711L71.7657 48.3176C69.9503 50.5291 67.6618 51.6348 64.9002 51.6348C62.5017 51.6348 60.5213 50.8977 58.959 49.4234C57.3967 47.949 56.6155 45.9796 56.6155 43.5151C56.6155 40.9186 57.4682 38.7676 59.1735 37.0622C60.8899 35.3459 63.0243 34.4877 65.5769 34.4877C67.7113 34.4877 69.3727 35.1313 70.5609 36.4186C71.7492 37.6949 72.1948 39.4993 71.8977 41.8317ZM67.1282 36.7322C66.5451 35.6429 65.7474 35.0983 64.7352 35.0983C63.723 35.0983 62.8923 35.6704 62.2432 36.8147C61.594 37.9589 61.209 39.4387 61.0879 41.2541C64.2016 41.2981 66.4626 41.0836 67.8709 40.6105C67.9589 39.1142 67.7113 37.8214 67.1282 36.7322ZM86.4208 51.6348C85.5956 51.6348 84.9355 51.3488 84.4404 50.7766C83.9563 50.2045 83.6812 49.4839 83.6152 48.6147C81.8658 50.6281 80.122 51.6348 78.3836 51.6348C77.2394 51.6348 76.2602 51.2552 75.446 50.4961C74.6318 49.7259 74.2247 48.7742 74.2247 47.641C74.2247 46.9808 74.3788 46.3757 74.6868 45.8256C75.0059 45.2755 75.5175 44.7474 76.2216 44.2413C76.9258 43.7352 77.8995 43.2896 79.1428 42.9045C80.386 42.5084 81.8768 42.1838 83.6152 41.9308V38.6136C83.6152 37.5573 83.3842 36.7102 82.9221 36.072C82.471 35.4229 81.9044 35.0983 81.2222 35.0983C80.6721 35.0983 80.0835 35.3294 79.4563 35.7915C78.8292 36.2426 78.2846 36.7762 77.8225 37.3923C77.3604 37.9974 76.9808 38.6136 76.6837 39.2407C76.3977 39.8568 76.2767 40.3244 76.3207 40.6435L75.8751 40.5445L74.6868 36.2536C75.732 35.7145 76.9093 35.2854 78.2186 34.9663C79.5279 34.6472 80.7766 34.4877 81.9649 34.4877C82.779 34.4877 83.5107 34.5702 84.1598 34.7352C84.82 34.8893 85.4196 35.1423 85.9587 35.4944C86.4978 35.8465 86.9159 36.3416 87.213 36.9797C87.521 37.6179 87.6751 38.377 87.6751 39.2572V47.839C87.6751 48.9943 88.0547 49.5719 88.8138 49.5719C89.1659 49.5719 89.452 49.4784 89.672 49.2913L89.9031 49.7039C88.8798 50.9912 87.7191 51.6348 86.4208 51.6348ZM78.4166 46.5187C78.4166 47.4539 78.6312 48.1856 79.0603 48.7137C79.4893 49.2418 80.0395 49.5059 80.7106 49.5059C81.1617 49.5059 81.6458 49.3738 82.1629 49.1098C82.68 48.8457 83.1641 48.4552 83.6152 47.938V42.5084C82.581 42.6514 81.7118 42.855 81.0077 43.119C80.3035 43.3831 79.7699 43.7021 79.4068 44.0762C79.0437 44.4393 78.7852 44.8134 78.6312 45.1985C78.4881 45.5835 78.4166 46.0236 78.4166 46.5187ZM97.1316 51.6348C96.2954 51.6348 95.3327 51.5358 94.2435 51.3378C93.1652 51.1507 92.153 50.8647 91.2068 50.4796L92.3621 46.1887L92.8407 46.0897C92.7967 46.4857 93.0222 47.0744 93.5173 47.8555C94.0234 48.6367 94.6946 49.3628 95.5307 50.034C96.3669 50.6941 97.1481 51.0242 97.8742 51.0242C98.5784 51.0242 99.1945 50.7491 99.7226 50.199C100.251 49.6379 100.515 48.9668 100.515 48.1856C100.515 47.6355 100.355 47.1514 100.036 46.7333C99.7171 46.3042 99.3045 45.9466 98.7984 45.6606C98.2923 45.3745 97.7312 45.1049 97.1151 44.8519C96.51 44.5988 95.8993 44.3238 95.2832 44.0267C94.6671 43.7297 94.1059 43.4051 93.5998 43.053C93.0937 42.6899 92.6811 42.2223 92.3621 41.6502C92.043 41.0671 91.8835 40.4069 91.8835 39.6698C91.8835 38.1625 92.4776 36.9247 93.6659 35.9565C94.8541 34.9773 96.4274 34.4877 98.3859 34.4877C99.079 34.4877 99.9097 34.5482 100.878 34.6692C101.846 34.7903 102.671 34.9553 103.353 35.1643L102.231 39.4552L101.753 39.5543C101.786 39.1472 101.604 38.5971 101.208 37.9039C100.812 37.2108 100.267 36.5781 99.5741 36.006C98.881 35.4229 98.2098 35.1313 97.5607 35.1313C96.9005 35.1313 96.3449 35.4009 95.8938 35.94C95.4537 36.4791 95.2337 37.1007 95.2337 37.8049C95.2337 38.366 95.3932 38.8666 95.7123 39.3067C96.0314 39.7358 96.4439 40.0934 96.95 40.3794C97.4562 40.6655 98.0118 40.9406 98.6169 41.2046C99.233 41.4687 99.8437 41.7492 100.449 42.0463C101.065 42.3434 101.626 42.6734 102.132 43.0365C102.638 43.3996 103.051 43.8727 103.37 44.4558C103.689 45.0279 103.849 45.6826 103.849 46.4197C103.849 47.96 103.227 49.2143 101.984 50.1825C100.74 51.1507 99.123 51.6348 97.1316 51.6348Z" fill="#0D1836"/>
</svg>
